<svg width="420" height="84" viewBox="0 0 420 84" fill="none" xmlns="http://www.w3.org/2000/svg" role="img" aria-label="DouseFire logo">
  <defs>
    <linearGradient id="g" x1="0" y1="0" x2="0" y2="1">
      <stop offset="0" stop-color="#F5C518"/>
      <stop offset="1" stop-color="#EAB308"/>
    </linearGradient>
  </defs>
  <rect x="0" y="0" width="420" height="84" rx="14" fill="#0A1628"/>
  <g transform="translate(18 18)">
    <path d="M22 2C14 10 10 17 10 24C10 33 17 40 26 40C35 40 42 33 42 24C42 17 37 10 30 2C28 0 24 0 22 2Z" fill="url(#g)"/>
    <path d="M26 13C21 18 18 22 18 26C18 31 22 35 27 35C31 35 35 31 35 26C35 22 33 18 29 13C28 12 27 12 26 13Z" fill="#0A1628"/>
  </g>
  <text x="78" y="47" fill="#F5C518" font-family="Montserrat, Arial, sans-serif" font-size="34" font-weight="800" letter-spacing="0.3">DouseFire</text>
</svg>
